<?xml version="1.0" standalone="no"?><!DOCTYPE svg PUBLIC "-//W3C//DTD SVG 1.1//EN" "http://www.w3.org/Graphics/SVG/1.1/DTD/svg11.dtd"><svg t="1513733905617" class="icon" style="" viewBox="0 0 1534 1024" version="1.1" xmlns="http://www.w3.org/2000/svg" p-id="1403" xmlns:xlink="http://www.w3.org/1999/xlink" width="299.609375" height="200"><defs><style type="text/css"></style></defs><path d="M239.104265 161.278056h70.482612a8.922096 8.922096 0 0 0 0-17.824753H239.104265a38.438876 38.438876 0 0 1 0-76.877753 41.033865 41.033865 0 0 1 8.88322 0.952468 8.98041 8.98041 0 0 0 10.554897-5.98694 62.979499 62.979499 0 0 1 115.559605-10.63265 9.369172 9.369172 0 0 0 5.559302 4.256948 9.019286 9.019286 0 0 0 7.250418-1.282916 49.100683 49.100683 0 0 1 76.858314 37.26287 9.29142 9.29142 0 0 0 3.187851 6.239636 8.611086 8.611086 0 0 0 5.617616 2.118755 8.300076 8.300076 0 0 0 1.224601 0 35.51344 35.51344 0 0 1 3.557176-0.21382 22.178891 22.178891 0 1 1 0 44.357783h-44.221716a8.902658 8.902658 0 0 0 0 17.805315h44.221716a39.673197 39.673197 0 0 0 23.111921-7.522551 7.775247 7.775247 0 0 0 5.831435 2.604708h50.811237a7.775247 7.775247 0 1 0 0-15.550494h-44.940926a39.303872 39.303872 0 0 0 5.034472-19.282612 40.081397 40.081397 0 0 0-36.932422-39.84814 67.003189 67.003189 0 0 0-95.616097-47.098557 80.707062 80.707062 0 0 0-140.420957 14.209264c-1.788307-0.174943-3.440547-0.252696-5.092786-0.252696a56.25391 56.25391 0 1 0 0 112.488383z m0 0M1323.984448 1000.36325H1058.090446a9.874563 9.874563 0 0 0-0.855277-6.822779c-6.628398-12.965224-7.891875-23.32574-3.887623-31.684131 9.855125-20.584966 50.092027-28.632346 71.610022-32.92817 15.68656-2.740774 27.427183-10.088383 34.016705-21.226424 7.580866-12.809719 7.969628-29.448747 1.166287-49.489445a3.887623 3.887623 0 0 0-0.388762-1.049659 46.398785 46.398785 0 0 0 43.619134-46.223842V329.009567a46.437661 46.437661 0 0 0-46.379347-46.379347h-722.903569a46.437661 46.437661 0 0 0-46.379347 46.379347v481.929233a46.437661 46.437661 0 0 0 46.379347 46.379347h29.9347s0 0.194381-0.116628 0.252696v0.233257c-6.900532 20.176765-6.550645 36.932422 1.088534 49.819894 6.725588 11.138041 18.485649 18.485649 33.919514 21.168109 21.57631 4.3347 61.735459 12.343204 71.707214 33.044799 4.062566 8.35839 2.818527 18.718907-3.887624 31.684131a9.971754 9.971754 0 0 0-0.71921 6.900531H250.475564a10.107821 10.107821 0 1 0 0 20.215642h1073.508884a10.107821 10.107821 0 1 0 0-20.196204z m-889.876994-163.51344A25.949886 25.949886 0 0 1 408.215883 810.9388V329.009567a25.949886 25.949886 0 0 1 25.91101-25.930448h722.903568a25.930448 25.930448 0 0 1 25.891572 25.930448v481.929233a25.930448 25.930448 0 0 1-25.891572 25.91101h-13.159605c-19.61306-16.464085-46.651481-21.556872-53.396507-22.587092a131.945938 131.945938 0 0 0-20.798785-1.399544 218.406682 218.406682 0 0 0-97.404404 24.122703H651.950431a218.912073 218.912073 0 0 0-97.773728-24.219894 133.695368 133.695368 0 0 0-20.623842 1.380107c-6.667274 1.049658-33.8612 6.161883-53.493698 22.723158h-45.951709z m405.129234 146.505087a27.213364 27.213364 0 0 0 4.043128 16.988915h-62.610175a27.213364 27.213364 0 0 0 4.140319-16.83341m-0.388762-3.887623a48.148216 48.148216 0 0 0-1.827183-7.775247c-12.071071-38.059833-44.940926-76.683371-97.6571-114.801518H939.265237c-52.832802 38.157024-85.760972 76.819438-97.85148 114.918147a50.908428 50.908428 0 0 0-1.943812 8.086257m19.826879 18.05801l4.179195 2.099317h-5.36492zM765.877234 1000.36325h-5.656492l4.412453-2.215946z m107.959302 0l-13.081853-10.379955-0.4082-0.388762c-0.466515-0.660896-1.943812-3.61549 0.447076-11.274108 10.710402-33.705695 42.452847-70.249355 91.747912-105.626727 47.701139-34.288838 94.585877-39.420501 118.261504-39.420501a114.68489 114.68489 0 0 1 16.40577 0.971906h0.62202c2.701898 0.427639 41.694761 7.114351 53.47426 30.731662 4.665148 13.801063 4.820653 24.97798 0.485953 32.383903-3.440547 5.831435-10.068945 9.719058-19.710251 11.487927h-0.563705c-26.766287 5.345482-71.571147 14.267578-86.033106 44.046773-6.531207 13.606682-5.481549 29.604252 2.954594 47.312377h-164.621412z m-285.312681-47.526196c-14.34533-29.876386-59.227942-38.740167-86.033105-44.066211h-0.544267c-9.719058-1.729992-16.269704-5.57874-19.729689-11.468489-4.256948-7.289294-4.082005-18.485649 0.505391-32.403341 12.148823-24.355961 53.221564-30.692787 53.435383-30.712225h0.719211a112.507821 112.507821 0 0 1 16.30858-0.971906c23.714503 0 70.599241 5.131663 118.319818 39.420501 49.353379 35.435687 81.076386 71.921033 91.747911 105.646166 2.468641 7.775247 0.93303 10.593774 0.52483 11.196355l-14.092635 10.924222h-164.174336c8.591648-17.785877 9.719058-33.744571 2.99347-47.429005z m0 0M1379.421957 1000.36325h-24.103265a10.107821 10.107821 0 1 0 0 20.215641h24.083827a10.107821 10.107821 0 1 0 0-20.215641z m0 0M219.160757 1000.36325h-24.083826a10.107821 10.107821 0 1 0 0 20.215641h24.083826a10.107821 10.107821 0 0 0 10.107821-10.10782 9.991192 9.991192 0 0 0-10.107821-10.107821z m0 0M41.924007 199.590585h253.997874a8.086257 8.086257 0 0 0 8.066819-7.930752 7.775247 7.775247 0 0 0-7.930752-7.930752H41.943445a7.930752 7.930752 0 1 0 0 15.861504z m0 0M408.837902 231.527411a7.347608 7.347608 0 0 0 0.699773 0.913591 7.930752 7.930752 0 0 0 5.831435 2.449203h2.313136a7.775247 7.775247 0 0 0 0-15.550494h-2.313136a7.930752 7.930752 0 0 0-6.453455 3.382233 7.775247 7.775247 0 0 0-6.414579-3.382233H180.381714a7.775247 7.775247 0 1 0 0 15.550494H402.384448a7.775247 7.775247 0 0 0 6.414578-3.362794z m0 0" fill="" p-id="1404"></path><path d="M356.996445 897.807745a7.775247 7.775247 0 0 0-6.822779 4.004252 7.775247 7.775247 0 0 0-6.783903-4.004252H89.644584a7.775247 7.775247 0 1 0 0 15.550493h253.745179a7.775247 7.775247 0 0 0 6.764464-3.887623 8.105695 8.105695 0 0 0 1.069097 1.516173 7.930752 7.930752 0 0 0 5.831435 2.449203h3.61549a7.775247 7.775247 0 1 0 0-15.550494z m0 0M1521.825602 674.677601a6.822779 6.822779 0 0 0-4.606834 1.788306 7.775247 7.775247 0 0 0-4.898405-1.788306h-123.743053a7.775247 7.775247 0 0 0-7.775247 7.600303 7.444799 7.444799 0 0 0 2.060441 5.598178 7.930752 7.930752 0 0 0 5.831435 2.449203H1512.300924a7.775247 7.775247 0 0 0 4.917844-1.788307 6.861655 6.861655 0 0 0 11.487927-5.073349v-1.943811a6.783903 6.783903 0 0 0-6.861655-6.842217z m0 0" fill="" p-id="1405"></path><path d="M1465.182929 708.519362a6.725588 6.725588 0 0 0-6.725588 5.67593 7.775247 7.775247 0 0 0-7.483675-5.67593h-123.704177a7.823842 7.823842 0 1 0 0 15.647684h123.723615a7.775247 7.775247 0 0 0 7.483675-5.67593 6.842217 6.842217 0 0 0 13.606682-1.185725v-1.943812a6.783903 6.783903 0 0 0-6.861656-6.842217z m0 0M213.834713 929.180866a7.775247 7.775247 0 0 0 6.064693 2.974031h1.321792a7.823842 7.823842 0 0 0 0-15.647684h-1.321792a7.775247 7.775247 0 0 0-6.064693 2.974032 7.775247 7.775247 0 0 0-6.08413-2.974032H7.790674a7.775247 7.775247 0 0 0-7.775247 7.600304 7.405923 7.405923 0 0 0 2.041002 5.598178 7.911314 7.911314 0 0 0 5.831435 2.468641h199.959909a7.775247 7.775247 0 0 0 6.084131-2.974032z m0 0" fill="" p-id="1406"></path><path d="M578.085587 156.457403h8.086256a7.775247 7.775247 0 1 0 0-15.550493h-8.086256a7.775247 7.775247 0 1 0 0 15.550493z m0 0M1116.152101 71.376765c1.418983 0.563705 14.073197 6.025816 21.654063 25.638877a12.129385 12.129385 0 0 0 8.533333 7.32817 13.93713 13.93713 0 0 0 2.624146 0.330448 11.526803 11.526803 0 0 0 7.775247-2.915718 35.377373 35.377373 0 0 1 23.656188-9.019286 40.820046 40.820046 0 0 1 4.373576 0.252695h0.505391a7.584753 7.584753 0 0 0 0.93303-15.142293 51.783144 51.783144 0 0 0-6.006378-0.349886 49.936522 49.936522 0 0 0-30.031891 10.01063c-10.846469-24.025513-28.243584-30.187396-29.040547-30.459529a7.580866 7.580866 0 0 0-9.194229 10.593774 7.269856 7.269856 0 0 0 4.140319 3.71268z m0 0M1153.512162 40.781169c1.282916 0.505391 12.945786 5.462111 20.001822 23.733941a12.071071 12.071071 0 0 0 7.911314 6.745027 10.982536 10.982536 0 0 0 2.68246 0.369324A11.293546 11.293546 0 0 0 1191.571995 68.810934a32.20896 32.20896 0 0 1 21.731815-8.183447 37.632194 37.632194 0 0 1 4.043128 0.233257h0.524829a7.351496 7.351496 0 0 0 0.913592-14.675778 49.450569 49.450569 0 0 0-5.403797-0.291572 47.79833 47.79833 0 0 0-27.990888 9.135915c-10.166135-22.29552-26.299772-27.835383-27.213364-28.126955a7.580866 7.580866 0 0 0-8.999848 4.567957 7.250418 7.250418 0 0 0 4.3347 9.310858z m0 0M743.154076 482.240243a100.203493 100.203493 0 0 0 11.04085-0.641458 10.146697 10.146697 0 0 0-1.360668-20.215641 10.418831 10.418831 0 0 0-1.166287 0 68.84981 68.84981 0 0 1-8.494457 0.505391c-51.219438 0-109.203341-52.366287-109.844799-52.968869a10.418831 10.418831 0 0 0-14.325892 0.641458 10.146697 10.146697 0 0 0 0.563705 14.248139c0.62202 0.583144 62.882308 58.314351 123.548671 58.314351z m0 0M827.301684 481.618223a107.434472 107.434472 0 0 0 11.021412 0.62202c61.366135 0 122.907213-57.847836 123.412604-58.314351a10.477145 10.477145 0 0 0 3.226728-7.230979 9.835687 9.835687 0 0 0-2.701898-7.094913 10.457707 10.457707 0 0 0-14.345331-0.485953c-0.563705 0.524829-58.314351 52.910554-109.572665 52.910554a72.795748 72.795748 0 0 1-8.708276-0.524829 10.154472 10.154472 0 1 0-2.313136 20.176766z m0 0M645.069337 512.505391a10.01063 10.01063 0 0 0-10.10782-10.127259h-158.090205a10.127259 10.127259 0 0 0 0 20.23508h158.070767a10.01063 10.01063 0 0 0 10.127258-10.107821z m0 0M948.459467 512.505391a10.01063 10.01063 0 0 0 10.10782 10.107821h158.090205a10.127259 10.127259 0 0 0 10.107821-10.107821 10.01063 10.01063 0 0 0-10.107821-10.127259h-158.090205a10.01063 10.01063 0 0 0-10.10782 10.127259z m0 0M692.303962 765.00653a10.030068 10.030068 0 0 0 0.4082 7.775247 10.438269 10.438269 0 0 0 13.606682 4.801215L787.259163 739.017768l82.88413 38.429157a8.863781 8.863781 0 0 0 4.54852 1.146849 10.185573 10.185573 0 0 0 9.233105-5.928626 9.91344 9.91344 0 0 0 0.427639-7.600304 10.127259 10.127259 0 0 0-5.287168-5.831435l-87.471526-40.645102a10.652088 10.652088 0 0 0-8.57221 0l-85.430524 40.606226a10.185573 10.185573 0 0 0-5.228853 5.831435z m0 0" fill="#ffffff" p-id="1407"></path></svg>